PathFileType  4	(X/Y/Z) C:\Users\antoi\Documents\MyRepositories\mobilecap\ResultsAnalysis
DataRate	CameraRate	NumFrames	NumMarkers	Units	OrigDataRate	OrigDataStartFrame	OrigNumFrames
100.0	100.0	4	51	mm	100.0	199	265
Frame#	Time	r_knee			r_shank_antsup			r_ankle			r_calc			r_5meta			r_toe			L_knee			L_shank_antsup			L_ankle			L_calc			L_5meta			L_toe			r_sh2			r_sh3			r_sh4			L_sh2			L_sh3			r_thigh1			r_thigh2			r_thigh3			r_thigh4			r_thigh5			L_thigh1			L_thigh2			L_thigh3			L_thigh4			r.ASIS			r.PSIS			L.ASIS			L.PSIS			C7			R_Shoulder			L_Shoulder			R_Sternum			L_Sternum			R_humerus			R_elbow_med			R_elbow_lat			R_forearm			R_wrist_radius			R_wrist_ulna			L_humerus			L_elbow_med			L_elbow_lat			L_forearm			L_wrist_radius			L_wrist_ulna			R_HJC			L_HJC			R_HJC_reg			L_HJC_reg			
		X1	Y1	Z1	X2	Y2	Z2	X3	Y3	Z3	X4	Y4	Z4	X5	Y5	Z5	X6	Y6	Z6	X7	Y7	Z7	X8	Y8	Z8	X9	Y9	Z9	X10	Y10	Z10	X11	Y11	Z11	X12	Y12	Z12	X13	Y13	Z13	X14	Y14	Z14	X15	Y15	Z15	X16	Y16	Z16	X17	Y17	Z17	X18	Y18	Z18	X19	Y19	Z19	X20	Y20	Z20	X21	Y21	Z21	X22	Y22	Z22	X23	Y23	Z23	X24	Y24	Z24	X25	Y25	Z25	X26	Y26	Z26	X27	Y27	Z27	X28	Y28	Z28	X29	Y29	Z29	X30	Y30	Z30	X31	Y31	Z31	X32	Y32	Z32	X33	Y33	Z33	X34	Y34	Z34	X35	Y35	Z35	X36	Y36	Z36	X37	Y37	Z37	X38	Y38	Z38	X39	Y39	Z39	X40	Y40	Z40	X41	Y41	Z41	X42	Y42	Z42	X43	Y43	Z43	X44	Y44	Z44	X45	Y45	Z45	X46	Y46	Z46	X47	Y47	Z47	X48	Y48	Z48	X49	Y49	Z49	X50	Y50	Z50	X51	Y51	Z51	

199	1.98000000	-208.26846	821.20381	-441.04058	-187.33306	702.85088	-422.80926	-264.65069	364.42050	-458.49815	-290.05036	377.21965	-536.96579	-220.98419	216.53805	-407.90189	-142.22747	223.03359	-432.61321	-209.68751	821.55550	-786.72021	-159.68204	723.20728	-776.61700	-207.38512	374.93290	-763.68170	-264.16757	381.55817	-693.97115	-140.19873	235.28343	-793.27400	-84.15062	238.16339	-738.14846	-174.98500	588.63832	-426.53160	-262.49907	692.84134	-424.23543	-254.75557	576.04742	-412.88477	-247.77553	714.63990	-801.39787	-214.71039	597.51712	-817.20489	-101.56905	1060.11187	-416.80652	-99.56804	948.20274	-426.53274	-145.98152	918.64248	-389.30267	-212.27920	1050.17400	-388.92705	-200.49919	932.37414	-398.07218	-115.57788	1075.22769	-821.34009	-113.19188	939.04177	-802.33328	-226.76265	1068.78771	-844.01646	-223.46162	932.04462	-817.49213	-85.08576	1317.39217	-482.57537	-266.20563	1406.02382	-560.48859	-80.86512	1323.52623	-738.43840	-267.39633	1411.87875	-663.76370	-136.48007	1882.34713	-625.20619	-61.71413	1911.10141	-528.13356	-79.93527	1900.13195	-712.01964	1.38023	1850.61602	-651.01879	-3.09882	1840.41896	-695.01216	-2.18420	1987.38872	-486.80274	199.54706	2056.98704	-379.66390	132.48682	2111.86490	-387.91990	218.94913	2211.32325	-507.17671	290.90424	2276.52159	-564.02402	277.93984	2310.61815	-537.18581	-24.09583	1971.65124	-788.51299	180.80743	1996.02573	-894.75071	127.83208	2060.41073	-896.30115	207.53076	2141.54296	-764.98923	258.11412	2219.05009	-712.36784	260.08121	2251.85997	-749.83211	-183.42290	1263.19399	-516.83045	-180.44176	1258.15898	-730.14006	-172.33502	1260.71380	-520.94370	-174.29061	1270.28379	-689.60566	
200	1.99000000	-207.65326	846.41493	-440.85406	-185.72041	726.07144	-425.14688	-271.53732	389.56169	-462.85232	-300.18663	404.98725	-539.89950	-225.23917	236.27314	-424.42401	-147.63396	246.78573	-449.97234	-206.56842	844.65508	-786.50755	-157.85660	745.77976	-777.11785	-212.21698	399.11480	-763.40436	-269.28032	408.85767	-694.49979	-150.84065	255.89103	-790.67349	-95.36549	257.10990	-734.79297	-176.30968	611.82928	-431.00843	-260.88109	718.43500	-422.54642	-256.04739	600.99649	-413.93055	-247.03233	739.15283	-799.45445	-216.87814	621.53578	-816.97797	-99.87297	1082.04801	-414.93295	-99.53679	970.59660	-424.99559	-146.51795	941.47250	-388.17546	-210.85063	1073.65581	-388.41536	-200.82977	956.27331	-397.58745	-114.73258	1098.69696	-823.49426	-110.23247	962.83782	-803.82191	-226.16220	1091.04183	-843.68712	-220.55626	954.14961	-818.12933	-83.29099	1339.93909	-484.12567	-266.61277	1427.05433	-560.98814	-81.65009	1348.37196	-741.74687	-267.99607	1433.02941	-663.77382	-135.62589	1905.85237	-625.12665	-64.04404	1934.94820	-525.15068	-80.63282	1923.78792	-714.38466	3.75169	1876.65744	-646.56904	0.78967	1866.81924	-690.76921	-5.48231	2010.62717	-479.51908	196.33131	2078.58661	-371.29850	128.36081	2132.54513	-378.17859	207.11677	2229.76026	-504.88938	274.76597	2294.30159	-567.54759	262.58893	2329.02282	-541.14753	-25.00445	1993.18760	-795.91742	179.62744	2013.41117	-902.95215	126.21227	2077.45203	-905.49807	202.11563	2157.02686	-771.29606	250.85534	2234.36349	-716.00885	253.43132	2267.79220	-752.78083	-181.22880	1284.77422	-518.87822	-179.98939	1281.38675	-732.24107	-171.19178	1282.71149	-522.79047	-173.48099	1292.58158	-692.60941	
201	2.00000000	-208.34208	870.61627	-442.66773	-183.66757	749.05402	-429.55593	-275.42809	412.71787	-465.37395	-307.35932	429.14737	-540.79847	-224.60298	256.05321	-436.76691	-148.27682	271.55530	-462.47400	-204.41490	866.72641	-786.10210	-157.65723	767.32470	-777.50070	-215.17777	422.02307	-764.60368	-273.47217	433.10569	-697.27895	-156.05491	277.40089	-790.48272	-102.22786	277.46338	-733.01300	-176.25199	634.58413	-437.10511	-258.58662	742.82082	-421.39868	-254.80561	624.95841	-414.29494	-246.78034	761.92573	-798.23100	-219.01080	643.72235	-816.24877	-97.62392	1102.21845	-416.65100	-100.41623	991.15084	-426.82050	-148.09818	962.75735	-390.51829	-208.15276	1096.41165	-388.64005	-201.95493	979.44803	-399.84585	-114.30287	1120.03775	-824.72301	-108.85952	984.40053	-804.94995	-226.03207	1112.06586	-841.98405	-219.28184	975.35794	-817.12129	-81.74784	1362.80468	-484.59019	-267.57111	1446.23427	-561.42286	-82.07164	1372.05812	-744.40330	-268.47815	1452.40945	-663.50306	-134.45680	1929.31784	-624.32970	-65.96376	1958.30710	-522.38163	-80.57745	1946.99026	-716.73813	5.63436	1901.48840	-642.33205	3.95829	1891.93697	-686.66713	-8.46672	2033.14318	-470.71305	194.87984	2098.28134	-363.15593	126.05495	2151.36655	-367.95851	195.83255	2245.68404	-501.42555	258.57857	2309.37446	-569.91624	247.39296	2344.68126	-543.85070	-25.11990	2014.35507	-803.97161	179.25103	2029.73423	-911.52649	125.74181	2093.84957	-915.24984	197.14758	2170.49731	-777.81642	244.14701	2247.49306	-719.05062	247.58977	2281.75002	-754.86561	-178.65949	1305.65912	-519.98042	-178.62146	1302.93644	-733.35633	-169.87351	1303.01070	-524.34783	-171.38603	1313.37408	-695.60928	
202	2.01000000	-209.51219	893.63622	-445.63033	-181.91276	771.37924	-434.76432	-277.33215	433.97534	-467.13322	-313.14136	449.22431	-540.28699	-220.19715	277.64121	-442.39789	-145.41731	297.51116	-469.52531	-203.43131	888.18870	-785.50888	-158.55232	788.40452	-777.29000	-216.47365	443.77057	-766.59184	-275.50657	455.10294	-699.88479	-157.61543	298.89299	-792.03311	-104.81707	298.56737	-733.78947	-175.98649	656.47041	-443.88602	-255.86637	765.74956	-421.38234	-252.41350	647.61824	-415.01018	-246.55171	783.82631	-798.00039	-220.08822	665.14767	-816.19333	-94.84568	1122.01215	-421.04367	-100.48698	1011.02336	-431.69309	-148.92061	983.46723	-395.31046	-204.47601	1118.60199	-389.64166	-202.06176	1001.91108	-404.43338	-114.64438	1140.18526	-825.07997	-109.26404	1004.58000	-806.03942	-226.77536	1132.60967	-839.14990	-219.72812	996.33528	-814.21538	-80.22682	1385.99794	-484.12729	-268.50119	1464.34361	-561.78569	-81.64236	1394.43044	-745.99685	-268.86663	1470.46595	-662.49631	-133.54174	1952.39317	-623.60523	-67.08279	1980.49469	-520.28627	-80.06198	1969.19112	-719.08614	6.62952	1923.85664	-639.04809	5.80073	1914.52162	-683.45746	-11.15345	2054.22933	-461.36163	194.51737	2116.21513	-355.70868	124.82613	2168.63981	-357.90568	185.19336	2259.38325	-496.88392	242.85092	2321.92005	-570.76281	232.80152	2357.79142	-545.01078	-24.88656	2034.90679	-811.38830	179.24758	2045.10509	-919.92182	125.71467	2109.33285	-925.00378	192.36146	2182.78234	-783.88981	237.32516	2259.03624	-721.45517	241.78833	2294.15269	-756.26732	-175.64476	1326.24498	-519.87247	-176.34680	1323.04917	-733.23824	-167.79053	1322.60797	-524.92239	-168.40767	1333.10773	-697.53124	
